<?xml version="1.0" standalone="no"?><!DOCTYPE svg PUBLIC "-//W3C//DTD SVG 1.1//EN"
        "http://www.w3.org/Graphics/SVG/1.1/DTD/svg11.dtd">
<svg class="icon" viewBox="0 0 1024 1024" version="1.1" xmlns="http://www.w3.org/2000/svg"
     width="200" height="200">
    <path d="M725.333333 810.666667a42.666667 42.666667 0 0 1 0 85.333333h-42.666666a42.666667 42.666667 0 0 1-85.333334 0v-323.669333l-55.168 55.168A42.538667 42.538667 0 0 1 512 640H341.333333a42.538667 42.538667 0 0 1-30.165333-12.501333L256 572.330667V896a42.666667 42.666667 0 0 1-85.333333 0H128a42.666667 42.666667 0 0 1 0-85.333333h42.666667v-16.298667l-61.738667-30.848a42.709333 42.709333 0 0 1 38.144-76.373333l23.594667 11.818666V469.333333a42.752 42.752 0 0 1 72.832-30.165333L358.997333 554.666667h135.338667l115.498667-115.498667A42.752 42.752 0 0 1 682.666667 469.333333v229.632l23.594666-11.818666a42.709333 42.709333 0 0 1 38.144 76.373333L682.666667 794.368V810.666667h42.666666z m-384-128a42.666667 42.666667 0 1 1 0 85.333333 42.666667 42.666667 0 0 1 0-85.333333z m170.666667 0a42.666667 42.666667 0 1 1 0 85.333333 42.666667 42.666667 0 0 1 0-85.333333z m-85.333333 85.333333a42.666667 42.666667 0 1 1 0 85.333333 42.666667 42.666667 0 0 1 0-85.333333z m341.333333-298.666667a42.666667 42.666667 0 1 1 0 85.333334 42.666667 42.666667 0 0 1 0-85.333334z m42.666667-384c70.570667 0 128 57.429333 128 128s-57.429333 128-128 128v42.666667a42.666667 42.666667 0 0 1-85.333334 0V298.666667a42.666667 42.666667 0 0 1 42.666667-42.666667h42.666667c23.509333 0 42.666667-19.157333 42.666666-42.666667 0-23.509333-19.157333-42.666667-42.666666-42.666666h-42.666667c-23.509333 0-42.666667 19.157333-42.666667 42.666666a42.666667 42.666667 0 0 1-85.333333 0c0-70.570667 57.429333-128 128-128h42.666667z"
          fill="#000000"/>
</svg>